<svg xmlns="http://www.w3.org/2000/svg" xmlns:xlink="http://www.w3.org/1999/xlink" width="600" height="400"><path fill="#078930" d="M0 0h600v400H0z"/><path fill="#fcdd09" d="M0 125h600v150H0z"/><path d="M0 175h600v50H0z"/><path fill="#dc121a" d="M0 0h150v400H0z"/><path id="a" d="M75 10.5l14.107 43.416-36.932-26.832h45.65L60.893 53.916z" fill="#fff"/><use xlink:href="#a" y="58.75" width="600" height="400" transform="translate(0 -2)"/><use xlink:href="#a" y="117" width="600" height="400" transform="translate(0 -4)"/><use xlink:href="#a" y="175.5" width="600" height="400" transform="translate(0 -6)"/><use xlink:href="#a" y="233.75" width="600" height="400" transform="translate(0 -8)"/><use xlink:href="#a" y="292.25" width="600" height="400" transform="translate(0 -10)"/><use height="400" width="600" y="292.25" xlink:href="#a" transform="translate(0 46)"/></svg>